<?xml version="1.0" encoding="UTF-8"?><svg id="Capa_2" xmlns="http://www.w3.org/2000/svg" viewBox="0 0 2526.58 1750.45"><defs><style>.cls-1{fill:#0f4c81;stroke-width:0px;}</style></defs><g id="Capa_1-2"><path class="cls-1" d="m1922.85,0C2124.09,0,2325.34,0,2526.58,0c-3.8,34.48-7.14,69.02-11.5,103.42-10.63,83.93-21.74,167.8-32.64,251.7-11.08,85.33-22.17,170.66-33.2,255.99-3.62,27.97-7.27,55.94-10.58,83.94-5.08,42.88-28.63,64.35-72.22,64.37-217.86.12-435.72-.2-653.57.33-32.61.08-54.48-13.22-70.28-41.28-36.54-64.93-74.81-128.89-111.21-193.9-17.08-30.5-41.19-43.64-76.03-43.39-120.14.85-240.3.75-360.44.04-31.04-.18-53.5,11.31-71.71,36.4-77.78,107.17-156.08,213.98-234.98,320.32-18.61,25.08-22.61,50.22-12.28,79.33,35.8,100.84,70.91,201.92,106.47,302.84,13.48,38.26,34.14,52.72,74.86,52.75,123.77.08,247.53-.34,371.3.31,28.23.15,49.65-9.84,68.49-30.6,66.14-72.89,133.53-144.65,199.57-217.64,18.91-20.9,40.03-30.17,68.44-30.09,235.23.69,470.46.39,705.69.39h26.11c-4.84,15.85-8.29,29-12.85,41.76-63.94,178.91-174.16,323.78-324.28,438.92-121.57,93.25-258.65,155.46-404.77,198.75-115.43,34.2-233.36,55.35-353.18,67-86.59,8.42-173.27,9.01-260.15,8.71-235.95-.81-471.9-.28-707.86-.28-102.05,0-204.11,0-306.16,0H0c6.62-37.69,12.63-72.46,18.86-107.19,26.9-150.15,53.77-300.3,80.84-450.42,27.2-150.82,54.22-301.68,82.13-452.37,10.59-57.17,30.53-111.48,56.02-163.73,117.85-241.58,304.96-405.64,556.9-496.77,105.97-38.33,215.37-61.46,327.68-70.72,20.9-1.72,41.85-2.93,62.74-4.83"/></g></svg>