<?xml version="1.0" encoding="UTF-8"?><svg id="Capa_2" xmlns="http://www.w3.org/2000/svg" viewBox="0 0 3017.69 1252.45"><defs><style>.cls-1{font-family:Geomanist, Geomanist;font-size:223.29px;}.cls-1,.cls-2{fill:#fff;}.cls-3{letter-spacing:1.18em;}.cls-4{letter-spacing:1.2em;}.cls-5{letter-spacing:1.18em;}.cls-6{letter-spacing:1.17em;}.cls-2{stroke-width:0px;}.cls-7{letter-spacing:1.14em;}.cls-8{letter-spacing:1.2em;}</style></defs><g id="Capa_1-2"><text class="cls-1" transform="translate(247.78 1199.53)"><tspan class="cls-7" x="0" y="0">F</tspan><tspan class="cls-3" x="358.83" y="0">A</tspan><tspan class="cls-8" x="763.21" y="0">C</tspan><tspan class="cls-6" x="1177.63" y="0">T</tspan><tspan class="cls-4" x="1552.98" y="0">O</tspan><tspan class="cls-5" x="1997.55" y="0">R</tspan><tspan class="cls-8" x="2383.17" y="0">Y</tspan></text><path class="cls-2" d="m453.85,64.71c.26-3.78,1.54-29.02-17.92-47.94C421.62,2.84,404.6.63,399.27.15c-25.37-.05-50.73-.1-76.1-.15-8.77,43.04-17.54,86.08-26.3,129.12,48.05-.04,96.1-.09,144.14-.13,4.28-21.43,8.56-42.86,12.83-64.28Z"/><path class="cls-2" d="m2122.81,64.71c.26-3.78,1.54-29.02-17.92-47.94-14.31-13.92-31.33-16.14-36.66-16.62-25.37-.05-50.73-.1-76.1-.15-8.77,43.04-17.54,86.08-26.3,129.12,48.05-.04,96.1-.09,144.14-.13,4.28-21.43,8.56-42.86,12.83-64.28Z"/><path class="cls-2" d="m2279.01,646.97c-2.01,6.84-21.21,29.74-27.01,33.49-64.67,41.83-109.54,53.52-172.86,53.52-56.97,0-86.06-41.21-73.94-98.18l80.05-391.04c4.52-22.96,9.05-45.92,13.57-68.89.13-.64-.36-1.23-1.01-1.24l-70.34-.67h-71.98c-9.88,48.23-19.77,96.46-29.65,144.69-20.42,99.66-40.84,199.31-61.26,298.97h0c-7.13,34.88-30.43,64.31-62.77,79.17-62.48,28.73-111.8,35.57-141.64,37.19-39.59,2.16-59.3-4.07-70.99-17.92-14.46-17.13-12.72-45.85-8.76-66.61,0-.04.02-.07.03-.11,2.56-8.26,3.38-15.5,5.17-23.52.02-.05.46-1.5.48-1.54,0-.01.59-2.15.58-2.16.43-1.95.49-1.92.85-3.86,19.86-106.42,16.98-83.04,58.96-303.45,17.27-80.7,17.67-103.09,1.66-120.89-17.75-19.73-47.42-21.19-66.9-19.96h-.06c-14.79-.05-29.58-.11-44.38-.17-.5,0-.92.32-1.02.8-1.85,9.01-5.56,27.16-7.29,35.59-24.75,121.09-49.16,242.26-73.23,363.52-.49,2.45-1.04,6.46-2.04,11.9-9.9,53.94-16.64,90.62-36.39,114.63-33.66,40.91-98.72,37.24-139.15,34.97-30.66-1.73-56.52-3.91-75.9-23.53-27.89-28.24-23.46-69.2-22.62-76.02,2.87-20.66,5.74-41.31,8.61-61.97,20.84-109.49,41.67-218.98,62.51-328.47.96-6.45,3.8-30.84-11.73-49.37-15.67-18.7-41.2-21.84-52.26-21.87-10.27-.03-20.53-.06-30.8-.09-9.83-.03-19.67-.06-29.5-.08-.45,0-.84.3-.93.74-1.43,6.95-12.18,59.29-12.38,60.3-34.75,169.22-67.76,330.16-69.47,338.45-.52,3.07-1.35,7.52-2.63,12.81-13.63,56.25-50.34,91.41-56.84,97.51-53.24,49.91-119.37,54.34-156.41,50.38-19.93-2.14-41.28-4.75-57.32-22.24-16.1-17.56-21.97-44.33-15.36-75.95l78.68-391.04c7.36-36.57-20.1-70.8-56.78-70.8h-69.89c-.5,0-.92.35-1.02.83l-28.97,143.85-60.21,298.97h0c-7.34,34.32-30.23,63.21-61.83,78.48-48.35,23.37-97.57,37.88-144.5,37.88-56.97,0-86.06-41.21-73.94-98.18l80.05-391.04c4.52-22.96,9.05-45.92,13.57-68.89.13-.64-.36-1.23-1.01-1.24l-70.34-.67h-71.98c-9.88,48.23-19.77,96.46-29.65,144.69-20.42,99.66-40.84,199.31-61.26,298.97-17.15,83.7-8.23,141.59,30.08,183.82,39.65,43.71,100.39,47.06,137.6,49.12,130.39,7.21,230.4-66.8,269.53-99.66.47-.39,1.15-.24,1.45.28,38.28,66.71,110.65,83.8,146.06,92.17,141.35,33.38,262.96-53.64,289.55-73.71.4-.3.93-.24,1.26.15,8.54,10.17,21.43,23.72,39.33,36.68,53.32,38.61,109.88,42.22,142.67,43.89,23.85,1.21,133.25,6.61,220.26-51.54.76.87,1.51,1.76,2.3,2.62,40.55,44.26,99.69,47.31,138.63,49.31,119.35,6.15,211.82-57.9,252.67-91.23.51-.41,1.24-.2,1.49.41,6.26,15.35,14.93,29.12,26.17,41.51,39.65,43.71,100.39,47.06,137.6,49.12,117.68,6.51,210.59-53.13,256.36-88.98.51-.4,1.22-.22,1.48.37,4.16,9.4,12.24,25.26,24.62,39.59,26.5,30.66,86.55,47.12,138.3,49.28,128.87,5.38,236.21-76.64,270.22-104.7l.05-.04c26.39-24.32,30.33-57.25,16.77-73.52-9.67-11.59-26.35-12.49-32.31-12.52-.16,0-.31.05-.44.14-40.53,26.33-76.93,43.15-104.03,53.2-35.15,13.03-70.3,20.61-104.25,20.61-56.97,0-86.06-41.21-73.94-98.18.05-.25.12-.56.25-1.16,4.6-21.37,9.63-44.72,15.09-69.94.11-.49.55-.85,1.05-.85l170.6.23c51.75.07,93.8-18.06,132.26-52.93,65.62-59.48,65.8-148.98,65.89-189.94.09-41.21.18-85.37-30.69-114.56-23.52-22.24-55-27.74-97.4-32.05-2.57-.26-69.14-.63-92.53-.63-161.22,0-227.89,76.37-255.77,209.71l-14.54,69.09-18.76,90.83-15.94,73.51c-1.31,7.79-3.21,19.12-4.51,26.91m424.76-263.29c-3.4,12.18-8.35,21.75-13.35,29.17-38.11,56.43-123.1,52.26-133.78,51.58-33.43-1.32-66.85-2.65-100.28-3.97,6.17-35.04,12.34-70.09,18.51-105.13,3.32-9.87,8.89-21.75,18.51-33.06,33.34-39.16,86.62-37.66,95.55-37.27,42.47.3,84.93.6,127.4.9-4.19,32.6-8.37,65.19-12.56,97.79Z"/></g></svg>